<?xml version="1.0" encoding="UTF-8"?>
<svg version="1.1" viewBox="0 0 2048 578" width="1280" height="1280" xmlns="http://www.w3.org/2000/svg">
<path transform="translate(0)" d="m0 0h2048v578h-2048z" fill="#E72F2E"/>
<path transform="translate(1009)" d="m0 0h1039v578h-471v-1l25-5 21-8 17-9 14-10 12-11 8-8 12-17 3-5h34l19 1v5l294-1-6-14-9-17-11-23-9-19-1-7 4-15 10-23 7-12-1-5-7-10-7-7-14-11-15-12-19-13-21-14-21-13-21-12-26-14-40-20-36-16-39-16-46-17-36-12-38-12-50-14-27-7-31-14-49-21-43-18-35-14-41-16-41-15-37-13-32-10-36-10-24-5-39-6-44-5-55-4-41-2z" fill="#FDFEFD"/>
<path transform="translate(0,387)" d="m0 0 3 4 4 10 8 14 9 12 11 12 14 11 15 9 15 7 20 6 22 4 12 1h30l12-1 13 21 11 13 13 13 15 11 18 10 19 7 19 5 9 1h34l16-3 15-4 20-9 15-9 13-10 12-11 11-14 8-12 1-1h37l22 1v3l79 1 712 11 98 2v-8h21l23 2 6 11 9 13 11 13 12 11 14 10 18 10 19 7 17 4 11 2v1h-1546z" fill="#FDFEFD"/>
<path transform="translate(295,228)" d="m0 0h26l24 4 21 6 21 9 16 9 14 10 13 11 12 12 13 17 11 18 10 21 10 30 5 22 4 27 1 10 1 22v22l-1 7h-59l-11 16-12 14-11 10-17 12-17 9-15 6-15 4-13 2h-34l-13-2-21-6-17-7-14-8-12-9-10-9-11-11-11-15-8-14-12 1h-30l-19-2-23-5-19-7-17-9-11-8-13-11-10-11-9-13-6-11-6-14v-96h1l4 23 7 21 9 17 12 16 7 8 8 7 16 12 21 12 21 9h8l6-4 2-4 3-28 5-25 8-24 9-19 12-18 11-13 11-11 13-10 15-9 19-9 26-8 21-4z" fill="#676968"/>
<path transform="translate(776,143)" d="m0 0h10l63 10 62 9 79 10 66 7 71 6 59 4 6 7 2 1h23l26-1h21l9 11 14 15 2 1h11l8-4 6-8 1-2v-7l-4-5-6-4v-2h10l4 13 7 29 6 32 5 38 2 23 1 35-16-1-190-23-344-42-32-4-5-2-11-17-10-16-3-11-2-13-1-23 2-20 6-18 7-10 8-8 14-7z" fill="#E8302F"/>
<path transform="translate(1543,253)" d="m0 0h32l18 2 20 6 18 8 18 10 16 12 14 12 9 9 11 14 10 15 10 18 7 17 7 21 6 27 3 24 1 15v29l-1 13h-19l-34-1-2 5-10 14-9 10-10 10-15 11-18 10-15 6-13 4-20 4h-31l-20-4-20-6-16-8-12-7-13-10-12-11-11-13-11-17-2-6-23-1-21-1-1-1v-38l2-25 4-26 6-25 8-24 11-23 9-14 9-12 11-12 11-9 11-8 16-9 15-6 13-4 22-4z" fill="#676968"/>
<path transform="translate(790,45)" d="m0 0h19l37 3 51 5 35 3 90 9 16 1 15 2 17 1 27 3 149 14 13 2 31 11 30 12 26 12 19 9 22 12 23 14 19 13 12 9-1 2-30 4-50 4-45 2-10-1 4 4 6 5 1 2v7l-6 9-7 5-3 1h-11l-8-7-10-11-7-8v-2l-47 2h-23l-6-5-2-3-85-6-66-6-70-8-75-10-80-12-60-10-99-18-89-18-36-8-2-2 32-8 60-13 48-9 51-8 55-7z" fill="#B9DDE6"/>
<path transform="translate(760,299)" d="m0 0 13 1 27 5 93 16 94 15 90 13 80 10 59 6 50 4 14 1 59 2v17l-3 29-7 36-5 17-1 2-51-1-392-10-19-1-10-16-24-38-15-24-24-38-15-24-12-19z" fill="#E8302F"/>
<path transform="translate(0)" d="m0 0h906v1l-75 4-61 5-68 8-55 8-58 10-38 6-121 17-111 15-123 16-104 13-16 5-13 7-12 11-6 7-4 6 1 21v43l-3 21-4 13-6 11-8 7-5 2h-11l-4-1-1 4z" fill="#FDFEFD"/>
<path transform="translate(295,228)" d="m0 0h26l24 4 21 6 21 9 16 9 14 10 13 11 12 12 13 17 11 18 10 21 10 30 5 22 4 27 1 10 1 22v22l-1 7h-22l-11-1-24-1 1-5 8-19 5-18 3-21v-20l-3-21-4-15-6-16-9-17-8-11-9-11-10-10-17-13-18-10-15-6-13-4-16-3-11-1h-18l-22 3-21 6-18 8-16 10-11 9-12 11-11 14-9 14-9 19-6 20-3 17-1 18 2 23 5 21 8 21-1 1-11 1h-30l-19-2-23-5-19-7-17-9-11-8-13-11-10-11-9-13-6-11-6-14v-96h1l4 23 7 21 9 17 12 16 7 8 8 7 16 12 21 12 21 9h8l6-4 2-4 3-28 5-25 8-24 9-19 12-18 11-13 11-11 13-10 15-9 19-9 26-8 21-4z" fill="#0E141A"/>
<path transform="translate(2047,483)" d="m0 0h1v95h-471v-1l25-5 21-8 17-9 14-10 12-11 8-8 12-17 3-5h34l19 1v5l296-1 4-8 4-13z" fill="#FDFEFD"/>
<path transform="translate(1543,253)" d="m0 0h32l18 2 20 6 18 8 18 10 16 12 14 12 9 9 11 14 10 15 10 18 7 17 7 21 6 27 3 24 1 15v29l-1 13h-19l-32-2 2-6 8-18 6-23 2-16v-22l-2-15-5-20-8-20-10-17-11-14-9-10-11-9-14-10-17-9-16-6-16-4-14-2h-30l-18 3-20 6-15 7-16 9-16 13-12 12-12 16-10 18-7 19-4 15-2 13v33l3 17 6 20 5 12h-22l-21-1-1-1v-38l2-25 4-26 6-25 8-24 11-23 9-14 9-12 11-12 11-9 11-8 16-9 15-6 13-4 22-4z" fill="#0E141A"/>
<path transform="translate(297,334)" d="m0 0h22l16 4 12 6 12 9 8 8 8 11 6 14 3 12v23l-4 16-5 10-10 14-11 10-14 8-7 3-16 4h-18l-17-4-16-8-3-2v-2l-4-2-11-11-8-13-4-8-4-17v-18l3-14 4-10 9-14 9-10 5-4h2v-2l17-9z" fill="#8F8184"/>
<path transform="translate(1547,354)" d="m0 0h28l17 5 13 8 11 9 8 10 8 14 4 13 1 5v23l-3 11-3 8-7 13-11 12-8 7-10 6-9 4-12 3h-25l-15-4-12-6-13-10-9-10-6-10-4-7-4-14-1-7v-16l3-14 5-13 6-9 1-2h2l2-4 9-9 8-6 15-7z" fill="#8F8184"/>
<path transform="translate(1554,332)" d="m0 0h13l19 3 14 5 15 8 14 11 9 10 9 14 7 16 4 18v25l-4 17-5 13-7 12-8 10-11 11-15 10-16 7-18 4h-26l-17-4-15-6-11-7-10-8-8-8-10-14-7-15-4-13-2-13v-16l2-14 6-18 8-15 9-11 10-10 10-7 15-8 17-5zm-7 22-16 5-11 6-10 8-8 8v2h-2l-6 10-4 8-4 14-1 6v16l3 15 4 9 6 11 8 10 10 9 7 5 14 6 12 3h25l14-4 14-7 10-8 9-9 7-11 4-7 4-13 1-5v-23l-4-15-7-14-7-9-6-7-11-8-10-6-17-5z" fill="#0E141A"/>
<path transform="translate(296,313)" d="m0 0h24l18 4 12 5 13 7 11 9 9 9 9 13 7 14 4 13 2 11v24l-4 18-7 16-9 14-11 12-13 10-16 8-15 5-13 2h-18l-20-4-15-6-14-9-10-9-9-9-8-13-6-12-5-19-1-7v-18l3-17 6-16 8-14 12-14 12-10 14-8 15-6zm1 21-16 4-17 9v2l-4 2-8 7-9 12-7 14-3 11-1 6v18l4 17 6 12 8 11 11 11h2v2l14 8 16 5 6 1h18l16-4 7-3 11-6 11-9 7-8 8-12 5-14 2-9v-23l-4-15-6-12-9-12-8-8-14-9-8-4-16-4z" fill="#0E141A"/>
<path transform="translate(667,280)" d="m0 0 14 1 102 12 606 74 3 2-31 3h-54l-27-1-53-4-51-5-68-8-59-8-81-12-93-15-98-17-27-5-73-14-10-2z" fill="#AAB5BA"/>
<path transform="translate(893,39)" d="m0 0h58l54 2 49 4 46 6 36 6 44 9 43 11 21 6 8 3v1l-16-1-139-13-27-3-26-2-6-1-36-3-42-4-28-3-56-5-40-4-35-3v-1l38-3z" fill="#696B6A"/>
<path transform="translate(1215,136)" d="m0 0h9l24 5 12 5 11 9 8 7 8 11 4 9 1 6 10 2 54-2 41-3h13v1l-50 4-45 2-10-1 4 4 6 5 1 2v7l-6 9-7 5-3 1h-11l-8-7-10-11-7-8v-2l-47 2h-23l-6-5-2-3-3-2h3l1-11 5-17 6-11 6-7 8-5z" fill="#ABB6BB"/>
<path transform="translate(245,115)" d="m0 0 18 4 98 24 272 67 11 4 27 15 11 6-4 1-73-18-64-16-70-17-161-40-32-8-18-11-12-8-3-1z" fill="#BBD8E0"/>
<path transform="translate(297,334)" d="m0 0h22l16 4 12 6 12 9 8 8 8 11 6 14 3 12v23l-4 16-5 10-10 14-11 10-14 8-7 3-16 4h-18l-17-4-16-8-3-2v-2l-4-2-11-11-8-13-4-8-4-17v-18l3-14 4-10 9-14 9-10 5-4h2v-2l17-9zm1 11-17 5-13 8-9 8-6 8-7 15-3 13v16l4 15 7 14 9 10 8 7 16 8 13 3h17l12-3 16-8 11-9 9-12 6-15 2-8v-20l-3-12-8-16-11-12-14-9-14-5-5-1z" fill="#C9C9CA"/>
<path transform="translate(1547,354)" d="m0 0h28l17 5 13 8 11 9 8 10 8 14 4 13 1 5v23l-3 11-3 8-7 13-11 12-8 7-10 6-9 4-12 3h-25l-15-4-12-6-13-10-9-10-6-10-4-7-4-14-1-7v-16l3-14 5-13 6-9 1-2h2l2-4 9-9 8-6 15-7zm7 10-9 2-12 4-11 7-10 9-8 11-5 12-3 13v14l3 14 8 16 8 10 10 8 14 7 5 2 15 2 15-1 17-6 12-8 10-10 8-14 5-16v-21l-5-17-8-13-6-7-12-9-17-7-10-2z" fill="#CAC9CB"/>
<path transform="translate(1555,395)" d="m0 0h13l11 4 10 9 6 12 1 5v8l-2 9-6 10-8 7-9 4-5 1h-10l-10-3-10-7-6-9-3-8v-15l4-10 6-8 9-6z" fill="#0E141A"/>
<path transform="translate(305,375)" d="m0 0 12 1 9 4 8 6 6 9 3 11v8l-3 10-5 8-9 8-10 4h-16l-10-4-10-9-5-10-1-4v-15l4-10 9-10 12-6z" fill="#0E141A"/>
<path transform="translate(2022,377)" d="m0 0 3 3 7 15 9 25 6 26 1 6v31l-4 15-4 9-2 3-2-1-6-14-9-17-11-23-9-19-1-7 4-15 10-23z" fill="#ACB7BC"/>
<path transform="translate(1556,380)" d="m0 0h10l15 4 7 4v2l5 2 2 2v8l3 7 5 5v7l-1 7-2 13-3 13-12 15-6 2-3 4-4-2-1 2-2-1-1 3-3 1h-11l-13-4-11-6-8-8-7-12-3-13v-11l2-7 4-12 2-3h2l2-4 8-9 12-6zm-1 15-11 4-9 7-6 10-2 6v15l5 12 5 6 11 7 8 2h10l10-3 9-6 6-7 4-9 1-6v-8l-3-10-6-9-8-7-11-4z" fill="#8D8F91"/>
<path transform="translate(1648,226)" d="m0 0 9 2 28 10 26 11 31 15 23 13 20 13 17 12 14 11 13 11 16 15 7 7 9 11 11 13 14 21 13 25 5 12-1 3-13-21-13-17-11-13-7-8-11-12-15-15-8-7-15-13-15-12-16-12-19-13-20-13-26-15-26-14-26-13-14-6z" fill="#A9B2B7"/>
<path transform="translate(39,140)" d="m0 0h1l2 20v43l-3 21-4 13-6 11-8 7-5 2h-11l-4-1-1 4 1-12 4-22 7-25 11-28 10-22z" fill="#A4C7D5"/>
<path transform="translate(328,366)" d="m0 0 7 3 9 8 3 9 2 12 4 11 3 5-2 9-8 13-7 6-9 6-2 6-8 3-4 1h-17l-12-4-6-4-1-3 2-5-3-6-7-4v2l-4-1 1-4 3 1v-13h3l4 11 8 9 10 5 3 1h16l10-4 10-9 5-11 1-5v-8l-4-13-7-9-8-5-3-1v-2l9-1 3 1-4-5z" fill="#9BA1A3"/>
<path transform="translate(299,361)" d="m0 0h17l13 4v6l3 3v2h-7l-8 1-12-1-9 2-9 5-8 9-4 10-1 15h-2l1 2v9l-1 2h-3l-1 3 4 1v-2l5 2 4 3 2 6-2 5v2l5 2 1 2-5-2-9-7-7-9-4-8-3-12v-12l2-9 7-13 9-11h3v-2l12-6z" fill="#8D8F90"/>
<path transform="translate(1586,389)" d="m0 0 5 2 4 3v8l3 7 5 5v7l-1 7-2 13-3 13-12 15-6 2-3 4-4-2-1 2-2-1-1 3-3 1h-11l-13-4-8-5 2-4 2-1-2-5-3-4v-2h-2v-2h-2l-1-4h-2l-3-10 2-13 3-4 1 17 5 12 4 5 11 7 8 2h10l10-3 9-6 6-8 3-7 1-6v-8l-3-10-6-9-7-6-2-2 8-3-1-4z" fill="#9BA0A3"/>
<path transform="translate(1595,394)" d="m0 0 5 5 4 5 5 12 1 4v18l-4 13-7 10-5 6-11 7-12 4h-6l4-4 5-1 2 1 4-5 6-2 11-15 2-11 3-24-1-4-6-7-1-5z" fill="#8E9091"/>
<path transform="translate(667,280)" d="m0 0 14 1 102 12 4 2 4 4v3 1h-9l-15-3-17-3-73-14-10-2z" fill="#C5C1C2"/>
<path transform="translate(1648,226)" d="m0 0 9 2 28 10 26 11 16 8-1 3 2 1-4 2h-3l-5-2-28-15-26-13-14-6z" fill="#C5C3C4"/>
<path transform="translate(245,115)" d="m0 0 18 4 17 4 1 3 19 6 1 3-1 1h-24l-19-12-9-6-3-1z" fill="#C6D2DA"/>
<path transform="translate(344,377)" d="m0 0 5 5 5 9 3 10v18l-4 12-7 11-7 7-12 7-3-1 4-1 1-6 5-4 10-7 7-10 4-10-1-4-4-8-3-10-2-14z" fill="#8E9091"/>
<path transform="translate(1229,150)" d="m0 0 4 1 11 9 7 10 3 6v6l-4 4-4-1-17-34z" fill="#C8D6DE"/>
<path transform="translate(385,155)" d="m0 0h9l3 2 16 3 16 4 4 2 9 2 7 3v1h-15l-9-1 2 2-8-1 1-2-7-3-1-2-13-2-1-3-13-2z" fill="#C7D6DF"/>
<path transform="translate(642,218)" d="m0 0 10 2 4 1 26 14-4 1-40-10 2-2v-5z" fill="#C5D0D7"/>
<path transform="translate(467,174)" d="m0 0 19 3 10 3 9 4 1 2-2 1h-6l-7-1h-8l-6-3-12-3-1-5z" fill="#C8D7E0"/>
<path transform="translate(1878,387)" d="m0 0 4 2 5 5 6 10 9 19 2 5-1 3-13-21-13-17-1-5z" fill="#C1BEC0"/>
<path transform="translate(1356,364)" d="m0 0 17 1 16 2 3 2-17 2h-29l4-1-1-4z" fill="#C5C1C3"/>
<path transform="translate(511,187)" d="m0 0 16 1 11 4 11 1 12 4 1 3-6 2-6-1-2-2-12-3-9-3-15-4z" fill="#C8D7E0"/>
<path transform="translate(578,204)" d="m0 0 7 1h12l10 4 10 2 1 3-3 1h-8l-10-4-15-4z" fill="#C8D7E0"/>
<path transform="translate(544,87)" d="m0 0 4 1 1 4-1 6-9-1-15-4 3-2z" fill="#C5D0D7"/>
<path transform="translate(1648,226)" d="m0 0 9 2 28 10 5 2v2h-4v3l-24-12-14-6z" fill="#ADB1B5"/>
<path transform="translate(667,280)" d="m0 0 14 1 34 4-1 3-6 1-41-8z" fill="#B1B1B4"/>
<path transform="translate(2e3 419)" d="m0 0h3v12l-3 6-2-1-1-7 2-9z" fill="#C4C1C2"/>
<path transform="translate(264,348)" d="m0 0 2 1-18 18-2-1 9-11z" fill="#C2CBD1"/>
<path transform="translate(274,375)" d="m0 0v3l-5 10-5 8h-2l3-9 8-11z" fill="#9EA4A7"/>
<path transform="translate(667,280)" d="m0 0 14 1 15 2 1 2h-9l-21-4z" fill="#C1C0C3"/>
<path transform="translate(1648,226)" d="m0 0 9 2 11 4v3l-9-3-11-5z" fill="#B5B7BC"/>
<path transform="translate(1531,391)" d="m0 0 2 1-1 3-5 4-1 3-5 2 2-5z" fill="#9EA4A7"/>
<path transform="translate(362,358)" d="m0 0 4 2 9 12-1 2-5-5-6-8z" fill="#BDC7CD"/>
<path transform="translate(1513,370)" d="m0 0 2 1-11 12-2-2z" fill="#C2C8CC"/>
<path transform="translate(1618,381)" d="m0 0 4 2 7 11v2h-2l-7-11z" fill="#C3CCD2"/>
<path transform="translate(299,362)" d="m0 0h14l-4 1-1 3-6-1z" fill="#9EA4A7"/>
<path transform="translate(1517,409)" d="m0 0h1l-1 10-2 5h-1v-7z" fill="#9EA4A7"/>
<path transform="translate(1539,356)" d="m0 0 4 1-12 5-4-1z" fill="#AEB4B9"/>
<path transform="translate(333,142)" d="m0 0 10 1v2l-6 1-5-2z" fill="#C8D7E0"/>
</svg>
